<svg version="1.2" xmlns="http://www.w3.org/2000/svg" viewBox="0 0 1477 1176" width="1477" height="1176">
	<title>jets_logo-svg</title>
	<style>
		.s0 { fill: #5f5f5f } 
		.s1 { fill: #c0c0c0 } 
	</style>
	<g id="#5f5f5fff">
		<path id="Layer" class="s0" d="m719.6 4.1c32-0.4 63.9-2.9 95.8-3.2 97 89.6 188.2 185.6 284.6 275.8 74.7-26.2 150-53.4 228.9-64.8 49.4-5.9 102.7-8.7 147.8 16-9 35.1-34.4 63.1-61.8 85.4-74.7 59.5-164 96.2-252.4 130-9.4 128.5-19.2 257-28.1 385.5 0.4 7.1-3.1 13.1-8.8 17.1-22 18.4-44.4 36.2-66.2 54.7-18.7-134.8-35.7-269.8-53.6-404.7-90.5 27-181.9 51.1-274 72.1-5.5 2.4-15.2 1-16 8.9-10.1 46.2-18.9 92.6-28.3 138.9-13.6 10.3-27.5 20.2-42.4 28.6-1.4-60.9-6.3-121.6-8.6-182.4 0.2-8.9-3.5-17.2-9.5-23.8-38.2-47.5-75.5-95.7-113.9-143.1q25.4-3.4 50.9-6.3c38.9 29.8 78 59.4 117.2 88.9 87.4-48 176.4-92.9 266.6-135.3-76.5-112.5-151.7-225.8-228.2-338.3zm-288.4 507c24.6-13.2 48.7-27.5 74.4-38.4 21.5 28.7 44.4 56.3 66.6 84.5 3.9 5.8 10 11.2 9.3 18.8 2 35.8 4.9 71.7 5.4 107.6-95.8 30.7-189.8 68.3-278.6 115.8-49.5 27.3-97.7 58.2-137.9 98.3-29 29.4-51.2 67.9-53.1 109.8 0 25.5 20.6 44.2 41 56.2 64.2 38.4 139.9 47.9 212.8 56.5-42.3 6.2-84 17.7-126.9 19.5-47.1 1.6-96.1 3.4-140.5-15.2-36.3-13.9-67.9-40.9-84.3-76.5-24.5-51.6-23.6-113.4-2.9-166.1 25.2-64.8 71-119 120.8-166.5 87.8-81.5 189.7-146.1 293.9-204.3z"/>
	</g>
	<g id="#c0c0c0ff">
		<path id="Layer" fill-rule="evenodd" class="s1" d="m334.7 317.6c113.9-112.8 285.5-163.6 442.4-129.8 30.6 44.1 60.1 88.9 90.9 132.8-18.6 9.2-37.3 18.2-56.2 26.6-29-34.2-64.8-66.8-110.7-74.3-0.5 44.2 0.2 88.2-0.3 132.4-5 2.3-9.8 4.7-14.8 7.1q-14.5-10.5-28.7-21.4c-0.4-39.3 0.1-78.6-0.3-117.8-30.8 5.3-59 21.6-81 43.5-6.2 5.7-11.8 12.3-19.1 16.6-20.1 4.9-41.1 4.9-61.4 8.9 20.8-28.7 44.1-55.6 72-77.8-98.8 27.2-186.2 90.9-243.4 175.7 40.5 0.5 81-0.3 121.5 0.4-24.9 13.4-49 28.4-74.5 40.7-23.2 4.5-47.3 1-70.9 1.8-10.3 18-15.6 38.2-25.1 56.5-28.4 21.1-58.4 40.3-86.8 61.4 15.3-107.2 68-208.6 146.4-283.3zm565.5 264.6c14.2-3.4 28.3-6.9 42.4-10.6 4.2 27.4 4.5 55.2 7.5 82.7 7 0.2 13.8 0.3 20.8 0.4 2 14.6 4.2 29 6.4 43.5-8.9 0-17.7 0-26.5 0-4.8 57.2-10.2 114.6-25.8 170.2 24.3 0 48.6 0.1 72.8-0.7 3.6 14.7 5.9 29.6 7 44.8-31.4 0.1-62.7-0.3-94.1 0.1-24.2 66.9-62.5 130.1-118.4 175.2 88.2-24.8 167.9-78.3 223.9-150.9 12.2 8.2 24.6 18.5 40.2 18.3 17.1 1.8 31.8-8.5 46-16.4-52.1 81-125.6 148.8-213.3 189.5-104 49.3-225.6 60.2-336.8 30.2-133.3-34.1-248.2-127.8-313.1-248.6 19.5-14.9 38.4-32 61.7-40.7 44.2-2.4 88.6 0.2 132.8-1.1-5.3-20.5-10.1-41.2-13.9-62.1 13.5-6.5 27.3-12.4 41.3-17.9 4.4 27 10.5 53.7 18.1 80 59.6 0.6 119.2 0.1 178.8 0.2 0.2-22.8 0.1-45.5 0.1-68.3 14.9-7.4 29-16 42.7-25.3 0.3 31.2 0 62.4 0.2 93.7 59.5-0.2 119 0.3 178.6-0.3 15.7-55.3 24.7-112.5 25.8-170-52.7 0.1-105.4 0.1-158.2 0.1 2.9-14.6 5.9-29.2 9.2-43.7 49.7 0.2 99.4 0.2 149.2 0-0.5-24.2-3.5-48.2-5.4-72.3zm-576.1 330.4c57.1 85.6 145.6 147.5 243.9 176.7-56.7-45.6-95.6-109-120.5-176.7-41.1-0.3-82.3-0.2-123.4 0zm170.6 0c12 27.8 25.5 55.2 43 80.2 28.6 41.2 69.3 77.8 120 87.6 0.7-55.9 0.4-111.9 0.3-167.8-54.4-0.3-108.9-0.2-163.3 0zm206.2 0.1c0.1 55.8-0.2 111.6 0.2 167.4 82.4-17.2 132.2-94.9 162.4-167.4-54.2-0.3-108.4-0.5-162.6 0z"/>
	</g>
</svg>